<?xml version="1.0" encoding="iso-8859-1"?>
<!-- Generator: Adobe Illustrator 19.0.0, SVG Export Plug-In . SVG Version: 6.00 Build 0)  -->
<svg version="1.1" id="Capa_1" xmlns="http://www.w3.org/2000/svg" xmlns:xlink="http://www.w3.org/1999/xlink" x="0px" y="0px"
	 viewBox="0 0 512 512" style="enable-background:new 0 0 512 512;" xml:space="preserve">
<g>
	<path style="fill:#9B4B14;" d="M105.79,296.297c-4.831-4.826-8.913-10.194-12.274-16.002L10,363.728l0.114,56.415l111.694-111.585
		C115.994,305.2,110.621,301.123,105.79,296.297z"/>
	<path style="fill:#9B4B14;" d="M332.125,70.184c-42.969-42.927-128.469-27.109-190.97,35.33
		c-62.5,62.439-78.334,147.856-35.365,190.783s128.469,27.109,190.97-35.33C359.261,198.527,375.094,113.111,332.125,70.184z
		 M268.468,232.702c-44.643,44.6-103.001,58.61-130.344,31.293s-13.32-85.617,31.323-130.217s103.001-58.609,130.344-31.292
		C327.135,129.803,313.111,188.103,268.468,232.702z"/>
</g>
<path style="fill:#E6E6E6;" d="M274.126,441.857c42.969,42.927,105.836,27.109,168.336-35.33s78.334-125.244,35.365-168.171
	L332.125,70.184c42.969,42.927,27.136,128.343-35.365,190.782s-148.001,78.257-190.97,35.33L274.126,441.857z"/>
<path d="M485.156,231.542C461.487,204.223,365.943,89.83,339.192,63.111c-23.179-23.157-57.647-31.892-97.047-24.606
	c-38.037,7.037-76.413,28.323-108.058,59.936c-31.645,31.615-52.953,69.956-59.998,107.959c-5.009,27.023-2.457,51.722,7.131,72.045
	l-78.288,78.21C1.05,358.536-0.005,361.089,0,363.75l0.114,56.414c0.008,4.04,2.447,7.678,6.18,9.222
	c1.235,0.51,2.532,0.758,3.818,0.758c2.601,0,5.157-1.015,7.07-2.926l104.265-104.163L267.32,449.191
	c18.1,17.961,39.594,26.811,63.162,26.809c36.398-0.004,77.729-21.121,119.048-62.399c32.418-32.386,53.141-65.689,59.929-96.313
	C516.73,284.489,508.325,254.846,485.156,231.542z M93.331,209.954c7.852-37.304,32.204-74.702,54.891-97.366
	c39.593-39.553,127.62-84.107,176.647-35.507c44.539,51.414,11.904,125.053-26.643,169.206
	c-38.934,44.597-132.832,95.876-185.572,42.725C91.001,267.189,87.302,238.599,93.331,209.954z M20.008,367.866
	c0,0,72.04-71.97,72.044-71.974c-0.817,0.915,13.804,13.861,13.899,13.937c0.081,0.064-85.886,86.237-85.886,86.237L20.008,367.866z
	 M489.933,312.96c-5.962,26.896-24.821,56.805-54.538,86.493c-29.719,29.689-59.66,48.531-86.585,54.487
	c-26.314,5.817-49.064-0.625-67.616-19.158c-0.169-0.17-0.345-0.333-0.526-0.49c0,0-120.426-104.131-120.444-104.146
	c2.644,2.286,14.584,0.234,17.847,0.034c33.689-2.07,66.117-15.94,93.553-35.107c51.344-35.868,92.364-94.094,94.609-158.5
	c0.139-3.983,0.061-7.939-0.231-11.915c-0.002-0.035-0.003-0.071-0.006-0.106L470.27,244.903c0.156,0.182,0.32,0.355,0.49,0.525
	C489.308,263.959,495.758,286.679,489.933,312.96z"/>
<path d="M360.423,310.428c-3.91-3.899-10.24-3.899-14.14,0.01c-3.91,3.91-3.901,10.24,0,14.14c1.949,1.95,4.51,2.93,7.069,2.93
	c2.561,0,5.12-0.979,7.07-2.93C364.334,320.667,364.323,314.337,360.423,310.428z"/>
<path d="M325.053,299.238c2.56,0,5.12-0.98,7.08-2.94c3.9-3.899,3.9-10.229-0.01-14.139c-3.91-3.9-10.24-3.9-14.141,0.01
	c-3.91,3.91-3.899,10.239,0.011,14.14C319.943,298.258,322.503,299.238,325.053,299.238z"/>
<path d="M402.874,366.975c-3.9,3.909-3.9,10.238,0.01,14.148c1.95,1.95,4.51,2.92,7.07,2.92s5.119-0.979,7.069-2.93
	c3.9-3.91,3.9-10.24-0.01-14.139C413.114,363.065,406.774,363.075,402.874,366.975z"/>
<path d="M374.573,338.706c-3.899,3.91-3.899,10.24,0.011,14.14c1.95,1.949,4.51,2.93,7.069,2.93c2.561,0,5.12-0.98,7.07-2.93
	c3.91-3.909,3.901-10.239-0.01-14.149C384.813,334.796,378.483,334.796,374.573,338.706z"/>
<path d="M287.572,330.927c3.901-3.909,3.901-10.239-0.01-14.14c-3.91-3.91-10.24-3.899-14.14,0.01
	c-3.901,3.9-3.901,10.23,0.01,14.14c1.95,1.95,4.51,2.92,7.061,2.92C283.053,333.856,285.612,332.876,287.572,330.927z"/>
<path d="M315.863,345.056c-3.909-3.91-10.239-3.9-14.14,0c-3.91,3.908-3.9,10.238,0,14.148c1.96,1.95,4.521,2.92,7.07,2.92
	c2.56,0,5.12-0.97,7.08-2.93C319.773,355.285,319.773,348.955,315.863,345.056z"/>
<path d="M358.313,401.603c-3.899,3.899-3.899,10.239,0.01,14.139c1.95,1.95,4.511,2.92,7.07,2.92c2.561,0,5.12-0.97,7.07-2.93
	c3.899-3.9,3.899-10.239-0.01-14.139C368.554,397.693,362.223,397.693,358.313,401.603z"/>
<path d="M330.013,373.334c-3.9,3.9-3.9,10.24,0.01,14.141c1.95,1.95,4.511,2.919,7.07,2.919c2.56,0,5.12-0.969,7.071-2.93
	c3.909-3.899,3.899-10.239,0-14.14C340.253,369.425,333.923,369.425,330.013,373.334z"/>
<path d="M282.152,391.243c-3.72,4.08-3.439,10.41,0.641,14.13c1.92,1.75,4.33,2.62,6.74,2.62c2.71,0,5.409-1.1,7.39-3.26
	c3.72-4.08,3.43-10.4-0.64-14.13C292.203,386.885,285.873,387.175,282.152,391.243z"/>
<path d="M311.683,418.222c-3.72,4.08-3.439,10.399,0.64,14.129c1.921,1.75,4.341,2.609,6.74,2.609c2.721,0,5.42-1.09,7.391-3.25
	c3.72-4.078,3.439-10.408-0.641-14.129C321.733,413.862,315.413,414.142,311.683,418.222z"/>
<path d="M252.622,364.265c-3.73,4.079-3.44,10.409,0.64,14.129c1.91,1.76,4.33,2.62,6.74,2.62c2.71,0,5.41-1.09,7.38-3.25
	c3.73-4.08,3.439-10.409-0.64-14.129C262.663,359.905,256.342,360.195,252.622,364.265z"/>
<path d="M359.714,254.72c2.56,0,5.12-0.979,7.07-2.93c3.909-3.91,3.909-10.239,0-14.148c-3.91-3.9-10.24-3.9-14.141,0.01
	c-3.91,3.91-3.899,10.239,0,14.148C354.603,253.74,357.153,254.72,359.714,254.72z"/>
<path d="M380.934,265.919c-3.899,3.91-3.899,10.24,0.01,14.141c1.95,1.96,4.511,2.93,7.07,2.93c2.56,0,5.12-0.98,7.07-2.93
	c3.899-3.91,3.899-10.24-0.011-14.141C391.174,262.01,384.844,262.01,380.934,265.919z"/>
<path d="M437.535,322.467c-3.901,3.9-3.901,10.229,0,14.14c1.96,1.95,4.51,2.92,7.069,2.92c2.561,0,5.12-0.97,7.08-2.93
	c3.9-3.91,3.9-10.239-0.01-14.14C447.764,318.547,441.434,318.557,437.535,322.467z"/>
<path d="M409.234,294.198c-3.899,3.9-3.899,10.23,0.011,14.139c1.949,1.95,4.51,2.92,7.06,2.92c2.57,0,5.13-0.979,7.08-2.93
	c3.9-3.909,3.9-10.239-0.01-14.139C419.474,290.278,413.144,290.288,409.234,294.198z"/>
<path d="M413.684,230.461c4.11-3.689,4.45-10.019,0.76-14.129c-3.699-4.1-10.02-4.439-14.13-0.75c-4.1,3.7-4.439,10.02-0.75,14.119
	c1.98,2.2,4.7,3.32,7.44,3.32C409.384,233.021,411.774,232.181,413.684,230.461z"/>
<path d="M441.184,246.09c-3.7-4.108-10.02-4.448-14.13-0.759s-4.44,10.02-0.75,14.119c1.97,2.2,4.7,3.32,7.44,3.32
	c2.38,0,4.77-0.851,6.68-2.561C444.535,256.52,444.875,250.19,441.184,246.09z"/>
<path d="M453.795,275.079c-4.11,3.7-4.44,10.021-0.75,14.119c1.97,2.2,4.7,3.32,7.44,3.32c2.38,0,4.771-0.84,6.681-2.561
	c4.109-3.689,4.439-10.019,0.75-14.119C464.224,271.729,457.904,271.389,453.795,275.079z"/>
<path d="M275.536,239.776c22.878-22.855,38.97-49.962,45.312-76.325c6.762-28.109,1.793-52.272-13.99-68.04
	c-41.643-41.601-111.664-1.491-144.48,31.292c-22.878,22.855-38.97,49.962-45.312,76.325c-6.762,28.108-1.794,52.272,13.988,68.039
	C172.718,312.689,242.713,272.567,275.536,239.776z M262.269,98.573c12.342,0,22.99,3.529,30.454,10.987
	c10.667,10.657,13.749,28.136,8.679,49.215c-0.833,3.464-1.891,6.951-3.117,10.442l-65.206-65.143
	C243.329,100.463,253.252,98.573,262.269,98.573z M169.648,148.114c0,0,20.94,20.916,21.024,21c3.848,3.844,10.317,3.833,14.15,0
	c3.639-3.638,3.857-10.291-0.01-14.14l-21.011-20.987c9.538-8.488,19.638-15.577,29.773-21.129l75.931,75.857
	c-5.636,10.215-12.797,20.229-21.24,29.654c0,0-6.843-6.838-6.863-6.857c-3.876-3.873-10.283-3.867-14.14,0.011
	c-3.716,3.736-3.938,10.193,0.01,14.139l6.84,6.831c-9.54,8.489-19.641,15.57-29.779,21.123l-75.924-75.849
	C154.044,167.552,161.205,157.539,169.648,148.114z M136.513,207.706c0.833-3.464,1.891-6.95,3.117-10.441l65.208,65.144
	c-24.281,8.556-46.728,7.419-59.646-5.487C134.524,246.263,131.442,228.785,136.513,207.706z"/>
<circle cx="226" cy="190.02" r="10"/>
<g>
</g>
<g>
</g>
<g>
</g>
<g>
</g>
<g>
</g>
<g>
</g>
<g>
</g>
<g>
</g>
<g>
</g>
<g>
</g>
<g>
</g>
<g>
</g>
<g>
</g>
<g>
</g>
<g>
</g>
</svg>
