<?xml version="1.0" encoding="iso-8859-1"?>
<!-- Generator: Adobe Illustrator 19.0.0, SVG Export Plug-In . SVG Version: 6.00 Build 0)  -->
<svg version="1.1" id="Capa_1" xmlns="http://www.w3.org/2000/svg" xmlns:xlink="http://www.w3.org/1999/xlink" x="0px" y="0px"
	 viewBox="0 0 512 512" style="enable-background:new 0 0 512 512;" xml:space="preserve">
<path style="fill:#4799CF;" d="M399.186,321.702V138.389c0-4.842-2.022-9.468-5.58-12.757l-94.182-86.936
	c-7.159-6.604-18.354-6.031-24.793,1.276L126.126,208.498l9.841-11.169l2.881,2.881l234.305,242.983H512v-8.678
	C512,372.208,461.494,321.702,399.186,321.702z"/>
<g>
	<polyline style="fill:#DBDBDB;" points="390.508,217.566 329.763,217.566 329.763,252.278 390.508,252.278 	"/>
	<polyline style="fill:#DBDBDB;" points="390.508,286.99 329.763,286.99 329.763,321.702 390.508,321.702 	"/>
	<path style="fill:#DBDBDB;" d="M138.847,200.211l-2.881-2.881l-9.841,11.169c-7.671,10.223-6.777,24.507,2.1,33.705
		l227.571,235.702h138.847c9.589,0,17.356-7.767,17.356-17.356v-17.356H373.153L138.847,200.211z"/>
</g>
<g>
	<polyline style="fill:#EAEAE8;" points="399.186,217.566 338.441,217.566 338.441,252.278 399.186,252.278 	"/>
	<rect x="338.441" y="286.973" style="fill:#EAEAE8;" width="60.746" height="34.712"/>
</g>
<g>
	<rect y="260.939" style="fill:#6CBAE5;" width="86.78" height="17.356"/>
	<rect y="339.041" style="fill:#6CBAE5;" width="138.847" height="17.356"/>
	<rect y="417.142" style="fill:#6CBAE5;" width="190.915" height="17.356"/>
</g>
<path style="fill:#F7BA61;" d="M376.841,434.516L223.432,275.422c26.971-27.327,26.858-71.506-0.338-98.694l-34.721-34.721
	c-0.668-0.668-1.493-1.102-2.317-1.519l-55.287,62.733c0.408,1.085,0.981,2.126,1.831,3.011l234.305,242.983
	c1.631,1.692,3.888,2.655,6.248,2.655H512v-17.356L376.841,434.516L376.841,434.516z"/>
<path style="fill:#EAEAE8;" d="M261.979,54.334l7.038,7.029l130.169,121.492v-44.466c0-4.842-2.022-9.468-5.58-12.757
	l-94.182-86.936c-7.159-6.604-18.354-6.031-24.793,1.276L261.979,54.334z"/>
<polygon style="fill:#428DC5;" points="399.186,356.414 399.186,321.702 329.763,321.702 "/>
<g>
</g>
<g>
</g>
<g>
</g>
<g>
</g>
<g>
</g>
<g>
</g>
<g>
</g>
<g>
</g>
<g>
</g>
<g>
</g>
<g>
</g>
<g>
</g>
<g>
</g>
<g>
</g>
<g>
</g>
</svg>
